<svg width="93" height="21" viewBox="0 0 93 21" fill="none" xmlns="http://www.w3.org/2000/svg">
<g clip-path="url(#clip0)">
<path d="M28.4605 11.3506C28.1872 11.3506 27.655 11.2489 27.655 10.5219C27.655 9.87729 28.1872 9.69312 28.4605 9.69312C28.5803 9.69312 31.6153 9.69312 31.7255 9.69312C31.8071 9.69312 31.9701 9.58165 31.9701 9.35386C31.9701 9.25208 31.9845 8.05015 32.0132 7.85628C32.042 7.60911 32.1235 7.10992 32.8187 7.10992C33.5283 7.10992 33.6002 7.61396 33.6386 7.87082C33.6578 8.05499 33.653 9.21331 33.653 9.32963C33.653 9.45079 33.6578 9.69312 33.8975 9.69312C34.0605 9.70281 37.0619 9.69312 37.2153 9.69312C37.4694 9.69312 38.0208 9.80944 38.0208 10.5073C38.0208 11.2392 37.4071 11.307 37.2297 11.307C37.1386 11.307 28.6235 11.3603 28.4605 11.3506ZM36.3235 8.39425C35.9448 8.67535 35.3934 8.47179 35.2543 8.32155C35.0194 8.14223 33.1687 4.99199 33.0824 4.88052C32.9961 4.76905 32.9721 4.71089 32.9002 4.71089C32.8235 4.71089 32.7899 4.76905 32.7036 4.89021C32.6173 5.01137 30.8386 7.95806 30.757 8.08892C30.5557 8.37971 30.0331 8.69958 29.4865 8.35548C29.007 8.01137 29.0118 7.42979 29.2036 7.13415C29.2564 7.05176 31.6297 3.47018 31.7543 3.33448C31.8934 3.18423 32.2098 2.74805 32.8858 2.74805C33.5619 2.74805 33.8591 3.16 33.9934 3.3054C34.142 3.46533 36.5728 7.29893 36.6016 7.39587C36.7407 7.69635 36.7023 8.1083 36.3235 8.39425Z" fill="#0372B8"/>
<path d="M44.4023 9.41209C44.2105 9.51387 43.5345 9.65926 43.2468 9.22307C43.0023 8.85474 41.9331 5.7045 41.89 5.59303C41.842 5.48156 41.8085 5.42824 41.7797 5.42824C41.7413 5.42824 41.6982 5.48156 41.6502 5.57849C41.6023 5.68026 40.442 8.7045 40.303 8.99044C40.0057 9.50417 39.531 9.67865 39.0995 9.48479C38.4858 9.20853 38.5817 8.44278 38.716 8.11807C38.7591 8.0066 40.3989 4.27962 40.5475 4.08576C40.6817 3.90159 41.0317 3.32485 41.7078 3.32485C42.4845 3.32485 42.7961 3.77073 42.9639 4.05668C43.0742 4.25054 44.6564 7.98236 44.7379 8.40886C44.8626 9.02437 44.6325 9.29577 44.4023 9.41209ZM47.5523 9.68834C47.4133 10.1924 46.8619 10.2069 46.6941 10.2215C46.464 10.2408 45.8167 10.1536 45.7879 9.34908C45.7784 9.12614 45.74 4.06637 45.74 3.84343C45.74 3.17946 46.2962 2.9856 46.5647 2.9856C47.3558 2.9856 47.5092 3.56718 47.514 3.94036C47.5188 4.23115 47.5236 5.11322 47.5236 5.11322C47.5236 5.11322 47.5044 5.48156 47.7345 5.48156C47.8256 5.48156 48.4921 5.48156 48.6023 5.48156C49.2928 5.48156 49.4414 6.07283 49.4414 6.36847C49.4414 7.00821 48.8996 7.17784 48.6743 7.17784C48.5688 7.17784 47.8784 7.17784 47.7441 7.20692C47.7249 7.21661 47.5523 7.25538 47.5523 7.48317C47.5571 7.67703 47.6051 9.49448 47.5523 9.68834Z" fill="#0372B8"/>
<path d="M50.1319 10.0955C49.4559 10.0955 49.3264 9.48002 49.3264 9.26677C49.3264 9.06321 49.4703 8.43801 50.1319 8.43801C50.2518 8.43801 52.4621 8.46709 52.5388 8.46709C52.7066 8.46709 52.7881 8.41378 52.7977 8.20538C52.8073 7.90974 52.8552 6.82412 52.8552 6.75627C52.8552 6.32008 53.2484 6.10683 53.6032 6.10683C53.7949 6.10683 53.9723 6.15045 54.1401 6.27161C54.308 6.39278 54.4326 6.58179 54.4614 6.8532C54.4806 7.05675 54.4086 8.06968 54.4134 8.18115C54.4278 8.40409 54.5812 8.44286 54.6292 8.44286C54.9552 8.44286 58.7573 8.42832 58.9107 8.42832C59.6011 8.42832 59.7258 9.09714 59.7258 9.30069C59.7354 9.50425 59.5628 10.0083 58.9107 10.0616C58.6374 10.0761 50.2997 10.0955 50.1319 10.0955ZM57.971 7.25546C57.971 7.66257 57.8128 8.11814 57.0361 8.11814C56.8922 8.11814 56.384 8.13268 56.2258 7.57533C56.1443 7.28454 56.1826 5.33623 56.1826 5.25869C56.1826 5.02606 56.0771 4.80312 55.8326 4.80312C55.7224 4.81281 51.8388 4.86127 51.7285 4.84673C51.0525 4.80796 50.923 4.22153 50.923 4.01798C50.923 3.80473 51.0333 3.18922 51.7285 3.18922C51.7908 3.18922 56.6141 3.18438 56.7148 3.17468C57.1224 3.17468 57.4292 3.29585 57.6306 3.53333C57.832 3.77081 57.9374 4.08583 57.9566 4.47355C57.9662 4.5511 57.971 7.20215 57.971 7.25546Z" fill="#0372B8"/>
<path d="M64.5058 15.6639C64.1223 15.6833 63.7963 15.5718 63.523 15.3392C63.2497 15.1066 63.1202 14.6704 63.1394 14.0355C63.1394 14.0355 63.1346 11.5153 63.1394 11.4184C63.1586 10.6962 63.7915 10.5993 63.9736 10.5993C64.6449 10.5993 64.9421 11.0694 64.9421 11.5686C64.9421 11.651 64.9278 13.5411 64.9278 13.6526C64.9278 13.8998 65.0668 13.9483 65.2394 13.9531C65.3401 13.9579 68.912 13.9095 69.0223 13.9095C69.5785 13.9095 69.7846 14.4087 69.7846 14.7673C69.7846 15.1066 69.6072 15.6445 69.0223 15.6494C68.8161 15.6494 64.6353 15.6639 64.5058 15.6639ZM69.5161 10.3521C69.4634 11.0791 68.9312 11.2439 68.7634 11.2584C68.4086 11.2827 67.7134 11.1373 67.7134 10.4006C67.7134 10.1825 67.6798 4.03226 67.6846 3.81417C67.7038 3.14535 68.2408 3.00964 68.5093 3.00964C68.7778 3.00964 69.4682 3.11627 69.5257 3.95472C69.5497 4.21643 69.5209 10.26 69.5161 10.3521Z" fill="#0372B8"/>
<path d="M72.604 9.66389C72.2588 9.6542 71.5684 9.62028 71.5684 8.5395C71.5684 8.3941 71.554 4.62351 71.554 4.53142C71.5252 4.20186 71.6115 3.92076 71.8081 3.68813C72.0047 3.46034 72.2876 3.3731 72.6615 3.3828C72.93 3.39249 75.7157 3.3828 75.8451 3.3828C76.8184 3.3828 76.8664 4.01769 76.8807 4.2891C76.8903 4.45388 76.9287 8.27779 76.9239 8.3941C76.9239 8.69943 76.9622 9.67843 75.8451 9.67843C75.7828 9.67843 72.6951 9.68328 72.604 9.66389ZM75.2698 5.25355C75.2698 4.89976 75.0492 4.88037 75.0013 4.88037C74.8622 4.87553 73.4766 4.89976 73.4143 4.89976C73.2321 4.89976 73.1745 5.05969 73.1698 5.18086C73.165 5.30202 73.1841 7.7689 73.1841 7.89007C73.1841 7.97246 73.2273 8.02577 73.3711 8.02577C73.515 8.02577 74.8718 8.03061 75.0924 8.03061C75.2602 8.03061 75.2506 7.91914 75.2554 7.85129C75.265 7.2891 75.2698 5.38441 75.2698 5.25355ZM79.8678 11.7576C79.8678 12.1647 79.6616 12.7172 79.0766 12.7172C78.1944 12.7172 78.0506 12.0096 78.0506 11.9272C78.041 11.8448 78.0362 4.12916 78.0314 3.81898C78.0266 3.51365 78.0842 3.28102 78.204 3.13562C78.3575 2.95145 78.5828 2.86422 78.8801 2.87876C79.1773 2.8933 79.4315 2.94661 79.6232 3.14532C79.7143 3.24709 79.8438 3.44095 79.8534 4.17278C79.8534 4.30364 79.8438 5.09362 79.8438 5.17601C79.8534 5.21478 79.8054 5.44257 80.0499 5.44257C80.3089 5.44257 80.9369 5.43288 81.1095 5.44257C81.7185 5.48134 81.8479 6.03385 81.8479 6.40218C81.8479 6.81898 81.5219 7.21155 81.1383 7.24063C81.028 7.25517 80.0835 7.26971 80.0691 7.26971C80.0116 7.28425 79.8102 7.27456 79.8198 7.61866C79.8198 7.82221 79.8678 11.6704 79.8678 11.7576Z" fill="#0372B8"/>
<path d="M83.9909 9.55747C83.5259 9.55747 82.6245 9.5817 82.6245 8.16652C82.6245 8.04051 82.6197 4.52678 82.6389 4.39592C82.6389 4.13421 82.8259 3.51385 83.6505 3.51385C83.732 3.51385 86.9156 3.52839 86.9971 3.52839C87.7115 3.52839 87.8074 4.13421 87.817 4.32807C87.817 4.53162 87.6348 5.12775 86.9971 5.12775C86.8389 5.12775 84.8156 5.12775 84.7485 5.12775C84.4752 5.12775 84.3841 5.21983 84.3457 5.37977C84.3362 5.42823 84.3314 7.48316 84.3314 7.59463C84.3314 7.94358 84.6047 7.9048 84.6334 7.9048C84.7773 7.9048 87.5581 7.85634 87.6108 7.85634C88.3732 7.85634 88.4834 8.44277 88.4834 8.66571C88.4834 8.89834 88.3108 9.54778 87.5581 9.54778C87.4814 9.53808 84.2163 9.55747 83.9909 9.55747ZM91.4129 7.15359C91.3842 7.15359 91.1253 7.18267 91.1205 7.44439C91.1157 7.54616 91.1876 8.91773 91.1205 9.35392C91.0821 9.60593 90.9814 10.1487 90.2958 10.1584C89.73 10.1681 89.4184 9.77072 89.4184 9.36361C89.4184 9.25214 89.3561 3.98881 89.3561 3.73679C89.3561 3.1649 89.8739 3.00012 90.1472 3.00012C90.9383 3.00012 91.1061 3.55263 91.1157 3.65925C91.1348 3.91127 91.1636 4.78849 91.1396 5.09382C91.1252 5.27314 91.1972 5.30707 91.389 5.30707C91.4273 5.30707 91.8924 5.30707 92.1129 5.30707C92.717 5.30707 92.9951 5.83049 92.9999 6.12128C93.0095 6.55262 92.7986 7.02758 92.3287 7.10513C92.1801 7.12451 91.5759 7.16329 91.4129 7.15359Z" fill="#0372B8"/>
<path d="M44.5126 15.9985C42.9448 15.9985 41.6647 14.7093 41.6647 13.1197C41.6647 11.5349 42.94 10.2408 44.5126 10.2408C46.0805 10.2408 47.3606 11.53 47.3606 13.1197C47.3606 14.7093 46.0805 15.9985 44.5126 15.9985ZM44.5126 11.816C43.7982 11.816 43.2181 12.4024 43.2181 13.1245C43.2181 13.8467 43.7982 14.4331 44.5126 14.4331C45.227 14.4331 45.8072 13.8467 45.8072 13.1245C45.8072 12.4024 45.227 11.816 44.5126 11.816Z" fill="#0372B8"/>
<path d="M54.6771 15.9985C53.1093 15.9985 51.8291 14.7093 51.8291 13.1197C51.8291 11.5349 53.1045 10.2408 54.6771 10.2408C56.2497 10.2408 57.525 11.53 57.525 13.1197C57.525 14.7093 56.2449 15.9985 54.6771 15.9985ZM54.6771 11.816C53.9627 11.816 53.3825 12.4024 53.3825 13.1245C53.3825 13.8467 53.9627 14.4331 54.6771 14.4331C55.3915 14.4331 55.9716 13.8467 55.9716 13.1245C55.9716 12.4024 55.3867 11.816 54.6771 11.816Z" fill="#0372B8"/>
<path d="M88.2007 15.9598C86.6329 15.9598 85.3527 14.6706 85.3527 13.081C85.3527 11.4962 86.6281 10.2021 88.2007 10.2021C89.7685 10.2021 91.0487 11.4913 91.0487 13.081C91.0439 14.6706 89.7685 15.9598 88.2007 15.9598ZM88.2007 11.7773C87.4863 11.7773 86.9062 12.3637 86.9062 13.0858C86.9062 13.808 87.4863 14.3944 88.2007 14.3944C88.9151 14.3944 89.4952 13.808 89.4952 13.0858C89.4904 12.3637 88.9103 11.7773 88.2007 11.7773Z" fill="#0372B8"/>
<path d="M63.3696 9.27627C61.7251 9.27627 60.3874 7.92409 60.3874 6.26173C60.3874 4.59937 61.7251 3.24719 63.3696 3.24719C65.0142 3.24719 66.3518 4.59937 66.3518 6.26173C66.3566 7.92409 65.0189 9.27627 63.3696 9.27627ZM63.3696 4.89016C62.6217 4.89016 62.0127 5.50567 62.0127 6.26173C62.0127 7.01779 62.6217 7.6333 63.3696 7.6333C64.1176 7.6333 64.7265 7.01779 64.7265 6.26173C64.7265 5.50567 64.1176 4.89016 63.3696 4.89016Z" fill="#0372B8"/>
<path d="M16.7666 0H12.883C8.70699 0 5.31244 3.43134 5.31244 7.65267V8.00162C5.31244 8.11793 5.32682 8.2294 5.33162 8.34087H10.1454C10.131 8.2294 10.1214 8.11793 10.1214 8.00162V7.65267C10.1214 6.11147 11.3632 4.86107 12.883 4.86107H16.7666C18.2913 4.86107 19.5283 6.11632 19.5283 7.65267V8.00162C19.5283 9.54281 18.2865 10.7932 16.7666 10.7932H13.1755V15.6543H16.7666C20.9427 15.6543 24.3372 12.2229 24.3372 8.00162V7.65267C24.3372 3.43134 20.9379 0 16.7666 0Z" fill="#3381C4"/>
<path d="M13.1131 10.8028H10.1213V7.78341C10.1213 6.45061 9.05212 5.36499 7.72882 5.36499C6.40553 5.36499 5.33634 6.45061 5.33634 7.78341V10.8028H2.39248C1.06919 10.8028 0 11.8836 0 13.2164C0 14.554 1.06919 15.6348 2.39248 15.6348H5.33634V18.5815C5.33634 19.9143 6.40553 20.9999 7.72882 20.9999C9.05212 20.9999 10.1213 19.9143 10.1213 18.5815V15.6348H13.1131C14.4364 15.6348 15.5056 14.554 15.5056 13.2164C15.5056 11.8836 14.4364 10.8028 13.1131 10.8028Z" fill="#F47D1F"/>
</g>
<defs>
<clipPath id="clip0">
<rect width="93" height="21" fill="white"/>
</clipPath>
</defs>
</svg>
