<svg width="133" height="20" viewBox="0 0 133 20" fill="none" xmlns="http://www.w3.org/2000/svg">
<g clip-path="url(#clip0)">
<path d="M12.5176 1.35994C7.76365 3.27994 5.68402 6.87194 5.68402 10.7759C5.68402 13.3399 7.57604 15.4519 10.2384 15.4519C12.0865 15.4519 14.7928 13.9799 14.7928 10.8879C14.7928 9.19994 13.8788 7.72794 12.5176 6.93994C13.1882 6.55194 13.9666 6.32794 14.7928 6.32794C17.3076 6.32794 19.3473 8.39194 19.3473 10.8879C19.3473 15.3799 16.166 18.7719 12.5176 19.7159C11.6914 19.9279 10.8412 20.0239 9.99096 19.9999C3.23718 19.8399 -2.25925 13.2959 0.934026 0.21994C6.12709 -0.41206 10.2424 0.42394 12.5176 1.35994Z" fill="url(#paint0_linear)"/>
<path d="M24.1132 0.24398L24.0972 0.21998C19.2514 -0.30802 15.4075 0.18798 12.5176 1.35998C7.76358 3.27998 5.68396 6.87198 5.68396 10.776C5.68396 13.34 7.57598 15.452 10.2384 15.452C10.9329 15.452 11.7472 15.244 12.4936 14.824C11.1485 14.028 10.2424 12.568 10.2424 10.888C10.2424 9.19998 11.1564 7.72798 12.5176 6.93998C13.1882 6.55198 13.9665 6.32798 14.7928 6.32798C17.3075 6.32798 19.3472 8.39198 19.3472 10.888C19.3472 15.38 16.1659 18.772 12.5176 19.716C13.3438 19.928 14.194 20.024 15.0443 20C21.7901 19.84 27.3064 13.32 24.1132 0.24398Z" fill="url(#paint1_linear)"/>
<path d="M81.0534 4.39978H79.6164V15.0518H81.0534V4.39978Z" fill="#727171"/>
<path d="M76.3632 4.87987V4.51587H74.7825V4.87987C74.7825 7.54787 74.1439 9.10387 72.0842 10.4679V11.6759C73.7647 11.1719 75.2296 9.59587 75.5729 8.43987C75.9162 9.59587 77.3811 11.1719 79.0615 11.6759V10.4679C76.9979 9.09987 76.3632 7.54387 76.3632 4.87987Z" fill="#727171"/>
<path d="M36.579 10.3079H35.142V13.2119H31.0306V14.3519H40.6903V13.2119H36.579V10.3079Z" fill="#727171"/>
<path d="M35.8445 7.83187C36.4553 9.17587 38.1597 10.6919 40.0716 11.1479V9.93987C38.4191 9.15987 36.6349 7.71187 36.6349 4.87987V4.51587H35.0542V4.87987C35.0542 7.71187 33.266 9.15987 31.6174 9.93987V11.1479C33.5254 10.6959 35.2338 9.17587 35.8445 7.83187Z" fill="#727171"/>
<path d="M49.6515 4.39978H48.2145V10.8118C47.7355 10.4318 47.1088 10.1958 46.4302 10.1958C44.9015 10.1958 43.6641 11.3638 43.6641 12.7998C43.6641 14.2358 44.9015 15.4038 46.4302 15.4038C47.959 15.4038 49.1964 14.2358 49.1964 12.7998C49.1964 12.1598 48.9489 11.5718 48.5378 11.1158H49.6515V7.02378H50.6813V5.88378H49.6515V4.39978V4.39978ZM46.4302 14.2078C45.6918 14.2078 45.0891 13.5758 45.0891 12.7998C45.0891 12.0238 45.6878 11.3918 46.4302 11.3918C47.1727 11.3918 47.7714 12.0198 47.7714 12.7998C47.7674 13.5758 47.1687 14.2078 46.4302 14.2078Z" fill="#727171"/>
<path d="M47.6597 10.044V8.83596C46.087 8.13196 45.1969 7.01596 45.1969 4.87596V4.51196H43.6162V4.87596C43.6162 7.01596 42.7301 8.12796 41.1534 8.83596V10.044C42.3828 9.76396 43.7838 8.79196 44.4065 7.54396C45.0332 8.79196 46.4303 9.76396 47.6597 10.044Z" fill="#727171"/>
<path d="M91.1959 4.39978H89.759V10.8118C89.276 10.4318 88.6533 10.1958 87.9707 10.1958C86.442 10.1958 85.2046 11.3638 85.2046 12.7998C85.2046 14.2358 86.442 15.4038 87.9707 15.4038C89.4995 15.4038 90.7409 14.2358 90.7409 12.7998C90.7409 12.1598 90.4934 11.5718 90.0823 11.1158H91.1959V7.02378H92.2218V5.88378H91.1959V4.39978ZM87.9707 14.2078C87.2323 14.2078 86.6336 13.5758 86.6336 12.7998C86.6336 12.0238 87.2323 11.3918 87.9707 11.3918C88.7132 11.3918 89.3119 12.0198 89.3119 12.7998C89.3119 13.5758 88.7132 14.2078 87.9707 14.2078Z" fill="#727171"/>
<path d="M86.0069 7.54396C86.6296 8.79196 87.9708 9.76396 89.2042 10.044V8.83596C87.831 8.21996 87.0208 7.29596 86.8371 5.65196H88.8848V4.51196H83.129V5.65196H85.1766C84.989 7.29596 84.1827 8.21996 82.8096 8.83596V10.044C84.043 9.76396 85.3842 8.79196 86.0069 7.54396Z" fill="#727171"/>
<path d="M56.2695 10.1958C54.7407 10.1958 53.5033 11.3638 53.5033 12.7998C53.5033 14.2358 54.7407 15.4038 56.2695 15.4038C57.7983 15.4038 59.0357 14.2358 59.0357 12.7998C59.0357 11.3638 57.7983 10.1958 56.2695 10.1958ZM56.2695 14.2078C55.531 14.2078 54.9283 13.5758 54.9283 12.7998C54.9283 12.0238 55.531 11.3918 56.2695 11.3918C57.0079 11.3918 57.6107 12.0198 57.6107 12.7998C57.6107 13.5758 57.0079 14.2078 56.2695 14.2078Z" fill="#727171"/>
<path d="M60.1333 5.64779C60.1333 5.03579 59.6344 4.53979 59.0237 4.53979H52.3657V5.67579H58.6924V8.72779H56.3214V6.80379H54.8844V8.72779H51.4396V9.86379H61.0993V8.72779H60.1373V5.64779H60.1333Z" fill="#727171"/>
<path d="M70.7351 4.39978H69.2981V12.1198H70.7351V4.39978Z" fill="#727171"/>
<path d="M68.1446 7.24389C68.1446 5.65589 66.8074 4.36389 65.1548 4.36389C63.5063 4.36389 62.1691 5.65589 62.1691 7.24389C62.1691 8.83589 63.5063 10.1279 65.1548 10.1279C66.8074 10.1279 68.1446 8.83589 68.1446 7.24389ZM63.6221 7.24389C63.6221 6.32789 64.3086 5.57989 65.1628 5.57989C66.013 5.57989 66.7036 6.32389 66.7036 7.24389C66.7036 8.16389 66.013 8.90789 65.1628 8.90789C64.3086 8.91189 63.6221 8.16389 63.6221 7.24389Z" fill="#727171"/>
<path d="M65.3224 11.0918H63.8815V13.8558V13.8838C63.8815 14.4958 64.3764 14.9918 64.9911 14.9918H70.8588V13.8558H65.3224V11.0918V11.0918Z" fill="#727171"/>
<path d="M101.702 4.39978H100.265V12.1198H101.702V4.39978Z" fill="#727171"/>
<path d="M96.5128 7.81187C97.1355 9.05587 98.4766 10.0319 99.71 10.3119V9.10387C98.2651 8.45587 97.4468 7.46787 97.3231 5.65587H99.3907V4.51587H93.6348V5.65587H95.7025C95.5787 7.46787 94.7605 8.45987 93.3155 9.10387V10.3119C94.5489 10.0319 95.8901 9.05587 96.5128 7.81187Z" fill="#727171"/>
<path d="M96.1615 11.0918H94.7245V13.8558V13.8838C94.7245 14.4958 95.2195 14.9918 95.8302 14.9918H101.822V13.8558H96.1615V11.0918Z" fill="#727171"/>
<path d="M112.85 9.5719H103.107V10.6519H112.85V9.5719Z" fill="#727171"/>
<path d="M111.908 4.78788H108.771V3.99988H107.19V4.78788H104.053V5.86788H105.49C105.278 6.19188 105.155 6.56388 105.155 6.95988C105.155 8.23588 106.42 9.27188 107.977 9.27188C109.533 9.27188 110.799 8.23588 110.799 6.95988C110.799 6.56388 110.679 6.19188 110.463 5.86788H111.904V4.78788H111.908ZM107.981 8.05988C107.21 8.05988 106.588 7.56788 106.588 6.96388C106.588 6.35988 107.21 5.86788 107.981 5.86788C108.751 5.86788 109.378 6.35988 109.378 6.96388C109.378 7.56788 108.751 8.05988 107.981 8.05988Z" fill="#727171"/>
<path d="M107.981 10.9519C106.348 10.9519 105.027 11.9479 105.027 13.1759C105.027 14.4039 106.348 15.3999 107.981 15.3999C109.613 15.3999 110.934 14.4039 110.934 13.1759C110.934 11.9479 109.613 10.9519 107.981 10.9519ZM107.981 14.2039C107.174 14.2039 106.52 13.7439 106.52 13.1759C106.52 12.6079 107.17 12.1439 107.981 12.1439C108.787 12.1439 109.442 12.6079 109.442 13.1759C109.442 13.7439 108.787 14.2039 107.981 14.2039Z" fill="#727171"/>
<path d="M131.974 5.88378V4.39978H130.537V9.21578H125.596V5.67978H129.34V4.54378H124.155V9.24378C124.155 9.85978 124.65 10.3558 125.26 10.3558H130.533V12.0078H131.97V7.02378H132.996V5.88378H131.974V5.88378Z" fill="#727171"/>
<path d="M126.557 11.0918H125.12V13.8558V13.8838C125.12 14.4958 125.615 14.9918 126.226 14.9918H132.09V13.8558H126.553V11.0918H126.557Z" fill="#727171"/>
<path d="M118.211 10.1958C116.682 10.1958 115.441 11.3638 115.441 12.7998C115.441 14.2358 116.682 15.4038 118.211 15.4038C119.74 15.4038 120.977 14.2358 120.977 12.7998C120.977 11.3638 119.74 10.1958 118.211 10.1958ZM118.211 14.2078C117.473 14.2078 116.874 13.5758 116.874 12.7998C116.874 12.0238 117.473 11.3918 118.211 11.3918C118.949 11.3918 119.552 12.0198 119.552 12.7998C119.552 13.5758 118.949 14.2078 118.211 14.2078Z" fill="#727171"/>
<path d="M122.075 5.64779C122.075 5.03579 121.58 4.53979 120.965 4.53979H114.303V5.67579H120.634V8.72779H118.263V6.80379H116.826V8.72779H113.381V9.86379H123.041V8.72779H122.075V5.64779Z" fill="#727171"/>
</g>
<defs>
<linearGradient id="paint0_linear" x1="15.8501" y1="17.9157" x2="0.276654" y2="0.962249" gradientUnits="userSpaceOnUse">
<stop stop-color="#00478B"/>
<stop offset="0.7" stop-color="#0075C2"/>
</linearGradient>
<linearGradient id="paint1_linear" x1="10.3679" y1="15.5791" x2="24.4678" y2="0.587053" gradientUnits="userSpaceOnUse">
<stop stop-color="#FDD000"/>
<stop offset="0.7" stop-color="#F08300"/>
</linearGradient>
<clipPath id="clip0">
<rect width="133" height="20" fill="white"/>
</clipPath>
</defs>
</svg>
