<svg width="14" height="14" viewBox="0 0 14 14" fill="none" xmlns="http://www.w3.org/2000/svg">
<path d="M13.5933 11.8799C14.0733 12.3599 14.0733 13.1066 13.5933 13.5866C13.3533 13.8266 13.06 13.9332 12.74 13.9332C12.42 13.9332 12.1267 13.8266 11.8867 13.5866L7.00666 8.70656L2.12665 13.5866C1.88665 13.8266 1.59333 13.9332 1.27333 13.9332C0.953331 13.9332 0.660011 13.8266 0.420011 13.5866C-0.0599894 13.1066 -0.0599894 12.3599 0.420011 11.8799L5.29999 6.99989L0.420011 2.11989C-0.0599894 1.63989 -0.0599894 0.893219 0.420011 0.413219C0.900011 -0.0667806 1.64665 -0.0667806 2.12665 0.413219L7.00666 5.29322L11.8867 0.413219C12.3667 -0.0667806 13.1133 -0.0667806 13.5933 0.413219C14.0733 0.893219 14.0733 1.63989 13.5933 2.11989L8.71331 6.99989L13.5933 11.8799Z" fill="#222"/>
</svg>
